<?xml version="1.0" encoding="UTF-8"?>
<!DOCTYPE svg PUBLIC "-//W3C//DTD SVG 1.1//EN" "http://www.w3.org/Graphics/SVG/1.1/DTD/svg11.dtd">
<svg xmlns="http://www.w3.org/2000/svg" version="1.1" width="512px" height="512px" style="shape-rendering:geometricPrecision; text-rendering:geometricPrecision; image-rendering:optimizeQuality; fill-rule:evenodd; clip-rule:evenodd" xmlns:xlink="http://www.w3.org/1999/xlink">
<g><path style="opacity:0.998" fill="#f44336" d="M 238.5,31.5 C 299.007,28.2798 353.007,45.1131 400.5,82C 445.977,122.118 471.477,172.618 477,233.5C 482.816,307.077 459.982,369.911 408.5,422C 369.684,455.956 324.351,474.956 272.5,479C 212.068,482.407 158.068,465.74 110.5,429C 65.0231,388.882 39.5231,338.382 34,277.5C 28.1843,203.923 51.0177,141.089 102.5,89C 141.519,55.1527 186.852,35.986 238.5,31.5 Z"/></g>
<g><path style="opacity:1" fill="#eeeded" d="M 171.5,160.5 C 176.449,159.959 181.116,160.792 185.5,163C 208.68,186.347 232.014,209.514 255.5,232.5C 279.681,208.485 304.014,184.652 328.5,161C 340.99,159.064 348.324,164.231 350.5,176.5C 350.705,179.795 349.872,182.795 348,185.5C 324.653,208.68 301.486,232.014 278.5,255.5C 301.486,278.986 324.653,302.32 348,325.5C 353.082,336.928 349.915,345.095 338.5,350C 333.816,351.102 329.483,350.436 325.5,348C 302.32,324.653 278.986,301.486 255.5,278.5C 232.014,301.486 208.68,324.653 185.5,348C 174,353.331 165.834,350.164 161,338.5C 159.898,333.816 160.564,329.483 163,325.5C 186.347,302.32 209.514,278.986 232.5,255.5C 209.514,232.014 186.347,208.68 163,185.5C 157.876,174.423 160.709,166.09 171.5,160.5 Z"/></g>
</svg>
