<?xml version="1.0" standalone="no"?>
<!DOCTYPE svg PUBLIC "-//W3C//DTD SVG 20010904//EN"
 "http://www.w3.org/TR/2001/REC-SVG-20010904/DTD/svg10.dtd">
<svg version="1.0" xmlns="http://www.w3.org/2000/svg"
 width="512.000000pt" height="512.000000pt" viewBox="0 0 512.000000 512.000000"
 preserveAspectRatio="xMidYMid meet">

<g transform="translate(0.000000,512.000000) scale(0.100000,-0.100000)"
fill="#000000" stroke="none">
<path d="M3300 4259 c-425 -64 -722 -447 -679 -873 35 -344 293 -631 631 -700
271 -56 550 31 740 231 157 166 227 358 215 595 -8 178 -68 333 -182 470 -170
205 -463 316 -725 277z"/>
<path d="M1595 3834 c-274 -45 -512 -225 -621 -470 -61 -139 -82 -350 -49
-494 47 -199 167 -378 332 -491 118 -81 303 -139 448 -139 311 0 606 193 732
479 89 201 87 459 -7 658 -128 276 -390 448 -695 458 -60 2 -123 1 -140 -1z"/>
<path d="M3147 2549 c-279 -29 -567 -114 -764 -225 l-68 -38 35 -10 c331 -89
577 -214 744 -375 170 -165 248 -324 263 -537 l6 -85 641 3 641 3 42 23 c63
33 106 74 133 129 23 44 25 61 28 213 4 185 -5 243 -50 335 -143 291 -542 496
-1088 560 -133 16 -431 18 -563 4z"/>
<path d="M1524 2130 c-558 -38 -1025 -251 -1188 -542 -55 -98 -66 -158 -66
-348 0 -152 2 -169 24 -216 28 -61 81 -114 144 -146 l47 -23 1220 0 1220 0 46
21 c57 26 118 85 144 139 28 57 35 366 10 453 -94 324 -512 573 -1085 646
-154 19 -368 26 -516 16z"/>
</g>
</svg>
