<?xml version="1.0" encoding="UTF-8"?>
<!DOCTYPE svg PUBLIC "-//W3C//DTD SVG 1.1//EN" "http://www.w3.org/Graphics/SVG/1.1/DTD/svg11.dtd">
<svg xmlns="http://www.w3.org/2000/svg" version="1.1" width="512px" height="512px" style="shape-rendering:geometricPrecision; text-rendering:geometricPrecision; image-rendering:optimizeQuality; fill-rule:evenodd; clip-rule:evenodd" xmlns:xlink="http://www.w3.org/1999/xlink">
<g><path style="opacity:0.997" fill="#27d935" d="M 233.5,15.5 C 318.934,10.6533 389.1,40.6533 444,105.5C 493.529,171.486 507.529,244.486 486,324.5C 459.5,405.667 405.667,459.5 324.5,486C 237.05,509.05 159.384,491.05 91.5,432C 29.9664,371.063 5.79977,297.563 19,211.5C 37.0392,127.475 85.2058,67.9747 163.5,33C 186.179,23.9968 209.513,18.1635 233.5,15.5 Z"/></g>
<g><path style="opacity:1" fill="#fefefe" d="M 250.5,143.5 C 260.045,142.229 266.878,145.895 271,154.5C 271.5,182.831 271.667,211.165 271.5,239.5C 299.502,239.333 327.502,239.5 355.5,240C 367.887,245.281 370.721,253.781 364,265.5C 361.559,267.969 358.726,269.802 355.5,271C 327.502,271.5 299.502,271.667 271.5,271.5C 271.667,299.502 271.5,327.502 271,355.5C 265.569,367.533 257.069,370.366 245.5,364C 243.031,361.559 241.198,358.726 240,355.5C 239.5,327.502 239.333,299.502 239.5,271.5C 211.165,271.667 182.831,271.5 154.5,271C 143.902,265.538 141.068,257.372 146,246.5C 148.264,243.567 151.098,241.4 154.5,240C 182.831,239.5 211.165,239.333 239.5,239.5C 239.333,211.165 239.5,182.831 240,154.5C 242.357,149.645 245.857,145.979 250.5,143.5 Z"/></g>
</svg>
