<?xml version="1.0" standalone="no"?>
<!DOCTYPE svg PUBLIC "-//W3C//DTD SVG 20010904//EN"
 "http://www.w3.org/TR/2001/REC-SVG-20010904/DTD/svg10.dtd">
<svg version="1.0" xmlns="http://www.w3.org/2000/svg"
 width="2000.000000pt" height="2000.000000pt" viewBox="0 0 2000.000000 2000.000000"
 preserveAspectRatio="xMidYMid meet">

<g transform="translate(0.000000,2000.000000) scale(0.100000,-0.100000)"
fill="#000000" stroke="none">
<path d="M8925 17569 c-235 -33 -431 -129 -597 -291 -183 -180 -290 -395 -317
-641 -8 -66 -11 -842 -11 -2436 l0 -2341 -2417 -3 -2418 -2 -84 -23 c-176 -47
-339 -142 -473 -275 -145 -145 -234 -295 -286 -486 l-27 -96 -3 -1214 c-3
-1306 -3 -1293 49 -1451 64 -196 203 -389 377 -521 130 -98 316 -176 476 -198
54 -8 800 -11 2442 -11 l2364 0 0 -2342 c0 -1462 4 -2375 10 -2428 27 -239
117 -432 284 -608 189 -200 411 -308 683 -331 159 -14 2177 -14 2336 0 272 23
494 131 683 331 164 173 255 366 284 598 7 56 10 874 10 2432 l0 2348 2413 2
2412 3 85 23 c98 28 243 93 327 149 184 121 353 341 422 550 52 156 52 147 49
1454 l-3 1214 -27 96 c-62 225 -188 418 -371 564 -95 76 -264 164 -382 197
l-80 22 -2422 3 -2423 3 0 2348 c0 1649 -3 2374 -11 2437 -30 243 -132 450
-310 626 -169 168 -373 268 -610 299 -92 12 -2349 11 -2434 -1z"/>
</g>
</svg>
