<?xml version="1.0" standalone="no"?>
<!DOCTYPE svg PUBLIC "-//W3C//DTD SVG 20010904//EN"
 "http://www.w3.org/TR/2001/REC-SVG-20010904/DTD/svg10.dtd">
<svg version="1.0" xmlns="http://www.w3.org/2000/svg"
 width="512.000000pt" height="512.000000pt" viewBox="0 0 512.000000 512.000000"
 preserveAspectRatio="xMidYMid meet">

<g transform="translate(0.000000,512.000000) scale(0.100000,-0.100000)"
fill="#000000" stroke="none">
<path d="M2103 4859 c-596 -53 -1174 -354 -1555 -808 -278 -333 -457 -729
-524 -1161 -25 -160 -25 -500 0 -660 118 -765 589 -1409 1271 -1740 293 -143
572 -215 900 -236 175 -10 263 16 347 103 59 60 83 124 83 218 0 95 -21 150
-84 218 -67 73 -132 96 -303 107 -204 13 -334 39 -508 102 -455 164 -834 553
-993 1018 -271 792 87 1656 840 2033 319 160 727 209 1088 131 286 -61 569
-212 783 -418 115 -111 236 -256 224 -268 -4 -4 -128 -59 -275 -123 -147 -63
-285 -124 -306 -134 -108 -56 -131 -170 -48 -248 29 -28 1460 -1026 1550
-1082 49 -30 121 -32 168 -5 68 39 66 31 219 1034 77 509 140 935 140 947 0
43 -31 102 -66 123 -70 44 -98 37 -449 -115 l-320 -137 -17 23 c-9 13 -51 71
-92 129 -78 111 -207 255 -316 355 -468 430 -1121 651 -1757 594z"/>
</g>
</svg>
