<?xml version="1.0" encoding="UTF-8"?>
<!DOCTYPE svg PUBLIC "-//W3C//DTD SVG 1.1//EN" "http://www.w3.org/Graphics/SVG/1.1/DTD/svg11.dtd">
<svg xmlns="http://www.w3.org/2000/svg" version="1.1" width="512px" height="512px" style="shape-rendering:geometricPrecision; text-rendering:geometricPrecision; image-rendering:optimizeQuality; fill-rule:evenodd; clip-rule:evenodd" xmlns:xlink="http://www.w3.org/1999/xlink">
<g><path style="opacity:0.996" fill="#0166ff" d="M 234.5,31.5 C 321.082,26.8827 389.915,59.216 441,128.5C 481.284,190.828 490.284,257.494 468,328.5C 439.536,404.631 386.036,453.131 307.5,474C 235.361,489.045 170.361,474.045 112.5,429C 49.051,373.012 22.8843,302.845 34,218.5C 49.0452,141.198 91.8785,85.3644 162.5,51C 185.645,40.8889 209.645,34.3889 234.5,31.5 Z"/></g>
<g><path style="opacity:1" fill="#fcfdff" d="M 241.5,143.5 C 269.843,141.399 295.843,148.065 319.5,163.5C 320.327,159.541 320.827,155.541 321,151.5C 325.979,144.01 332.479,142.51 340.5,147C 341.667,148.833 342.833,150.667 344,152.5C 345.537,166.83 347.037,181.163 348.5,195.5C 348.356,203.979 344.023,208.646 335.5,209.5C 320.846,207.558 306.179,205.724 291.5,204C 281.8,197.445 281.134,190.111 289.5,182C 293.046,180.826 296.713,180.16 300.5,180C 258.406,158.286 220.906,164.452 188,198.5C 177.548,211.407 170.881,226.074 168,242.5C 167.641,257.248 168.308,271.914 170,286.5C 165.815,293.339 159.982,295.172 152.5,292C 148.639,288.746 146.472,284.579 146,279.5C 137.752,228.852 154.585,189.019 196.5,160C 210.613,151.799 225.613,146.299 241.5,143.5 Z"/></g>
<g><path style="opacity:1" fill="#fcfdff" d="M 347.5,217.5 C 354.018,216.123 359.185,218.123 363,223.5C 374.447,271.49 361.614,311.657 324.5,344C 290.633,368.172 253.966,373.505 214.5,360C 206.514,356.342 198.847,352.175 191.5,347.5C 190.816,352.208 189.982,356.874 189,361.5C 180.331,370.166 172.998,369.166 167,358.5C 165.29,344.189 163.79,329.855 162.5,315.5C 161.843,309.646 164.176,305.48 169.5,303C 183.559,302.895 197.559,303.895 211.5,306C 222.608,306.104 227.775,311.604 227,322.5C 223.444,328.919 217.944,331.752 210.5,331C 239.927,347.317 269.594,347.65 299.5,332C 327.326,314.637 341.992,289.471 343.5,256.5C 342.77,245.78 341.937,235.114 341,224.5C 342.694,221.642 344.861,219.309 347.5,217.5 Z"/></g>
</svg>
